<svg width="30" height="30" viewBox="0 0 30 30" fill="none" xmlns="http://www.w3.org/2000/svg">
  <path d="M15 17.5C16.3807 17.5 17.5 16.3807 17.5 15C17.5 13.6193 16.3807 12.5 15 12.5C13.6193 12.5 12.5 13.6193 12.5 15C12.5 16.3807 13.6193 17.5 15 17.5Z" stroke="#c9a87a" stroke-width="2" stroke-linecap="round" stroke-linejoin="round"/>
  <path d="M25 12.5H23.75C23.5511 12.5 23.3603 12.4342 23.2197 12.3169C23.079 12.1997 22.9974 12.0384 22.9913 11.8675L22.925 9.8C22.9121 9.47584 22.7692 9.17331 22.5292 8.95941C22.2892 8.74551 21.9736 8.64094 21.65 8.675L19.6 8.9C19.4291 8.92313 19.2595 8.86348 19.1296 8.73865C19.0003 8.61411 18.9221 8.43894 18.9125 8.25375L18.75 6.25C18.7312 5.92745 18.5863 5.62823 18.3489 5.41542C18.1115 5.20261 17.8004 5.09499 17.4775 5.1175L15.475 5.2C15.2898 5.21251 15.1088 5.15009 14.9683 5.03C14.8279 4.90991 14.7379 4.74271 14.7175 4.55875L14.5 2.5625C14.4663 2.24216 14.3085 1.94921 14.0616 1.74324C13.8147 1.53727 13.4976 1.43526 13.175 1.4625L11.175 1.6625C10.9898 1.67501 10.8088 1.61259 10.6683 1.4925C10.5279 1.37241 10.4379 1.20521 10.4175 1.02125L10.2 0.5625" stroke="#c9a87a" stroke-width="2" stroke-linecap="round" stroke-linejoin="round"/>
  <path d="M25 17.5H23.75C23.5511 17.5 23.3603 17.5658 23.2197 17.6831C23.079 17.8003 22.9974 17.9616 22.9913 18.1325L22.925 20.2C22.9121 20.5242 22.7692 20.8267 22.5292 21.0406C22.2892 21.2545 21.9736 21.3591 21.65 21.325L19.6 21.1C19.4291 21.0769 19.2595 21.1365 19.1296 21.2614C19.0003 21.3859 18.9221 21.5611 18.9125 21.7462L18.75 23.75C18.7312 24.0726 18.5863 24.3718 18.3489 24.5846C18.1115 24.7974 17.8004 24.905 17.4775 24.8825L15.475 24.8C15.2898 24.7875 15.1088 24.8499 14.9683 24.97C14.8279 25.0901 14.7379 25.2573 14.7175 25.4412L14.5 27.4375C14.4663 27.7578 14.3085 28.0508 14.0616 28.2568C13.8147 28.4627 13.4976 28.5647 13.175 28.5375L11.175 28.3375C10.9898 28.325 10.8088 28.3874 10.6683 28.5075C10.5279 28.6276 10.4379 28.7948 10.4175 28.9788L10.2 29.4375" stroke="#c9a87a" stroke-width="2" stroke-linecap="round" stroke-linejoin="round"/>
  <path d="M5 17.5H6.25C6.44891 17.5 6.63968 17.5658 6.78033 17.6831C6.92098 17.8003 7.00265 17.9616 7.00875 18.1325L7.075 20.2C7.08789 20.5242 7.23076 20.8267 7.47076 21.0406C7.71076 21.2545 8.02643 21.3591 8.35 21.325L10.4 21.1C10.5709 21.0769 10.7405 21.1365 10.8704 21.2614C10.9997 21.3859 11.0779 21.5611 11.0875 21.7462L11.25 23.75C11.2688 24.0726 11.4137 24.3718 11.6511 24.5846C11.8885 24.7974 12.1996 24.905 12.5225 24.8825L14.525 24.8C14.7102 24.7875 14.8912 24.8499 15.0317 24.97C15.1721 25.0901 15.2621 25.2573 15.2825 25.4412L15.5 27.4375C15.5337 27.7578 15.6915 28.0508 15.9384 28.2568C16.1853 28.4627 16.5024 28.5647 16.825 28.5375L18.825 28.3375C19.0102 28.325 19.1912 28.3874 19.3317 28.5075C19.4721 28.6276 19.5621 28.7948 19.5825 28.9788L19.8 29.4375" stroke="#c9a87a" stroke-width="2" stroke-linecap="round" stroke-linejoin="round"/>
  <path d="M5 12.5H6.25C6.44891 12.5 6.63968 12.4342 6.78033 12.3169C6.92098 12.1997 7.00265 12.0384 7.00875 11.8675L7.075 9.8C7.08789 9.47584 7.23076 9.17331 7.47076 8.95941C7.71076 8.74551 8.02643 8.64094 8.35 8.675L10.4 8.9C10.5709 8.92313 10.7405 8.86348 10.8704 8.73865C10.9997 8.61411 11.0779 8.43894 11.0875 8.25375L11.25 6.25C11.2688 5.92745 11.4137 5.62823 11.6511 5.41542C11.8885 5.20261 12.1996 5.09499 12.5225 5.1175L14.525 5.2C14.7102 5.21251 14.8912 5.15009 15.0317 5.03C15.1721 4.90991 15.2621 4.74271 15.2825 4.55875L15.5 2.5625C15.5337 2.24216 15.6915 1.94921 15.9384 1.74324C16.1853 1.53727 16.5024 1.43526 16.825 1.4625L18.825 1.6625C19.0102 1.67501 19.1912 1.61259 19.3317 1.4925C19.4721 1.37241 19.5621 1.20521 19.5825 1.02125L19.8 0.5625" stroke="#c9a87a" stroke-width="2" stroke-linecap="round" stroke-linejoin="round"/>
</svg> 