<svg width="20" height="20" viewBox="0 0 20 20" fill="none" xmlns="http://www.w3.org/2000/svg">
  <path d="M13.3333 6.66675C14.6594 6.66675 15.9312 7.19353 16.8689 8.13128C17.8067 9.06903 18.3333 10.3408 18.3333 11.6667V17.5001H15V11.6667C15 11.0037 14.7366 10.3677 14.2678 9.89886C13.7989 9.43002 13.163 9.16675 12.5 9.16675C11.837 9.16675 11.2011 9.43002 10.7322 9.89886C10.2634 10.3677 10 11.0037 10 11.6667V17.5001H6.66667V11.6667C6.66667 10.3408 7.19345 9.06903 8.1312 8.13128C9.06895 7.19353 10.3406 6.66675 11.6667 6.66675H13.3333Z" stroke="white" stroke-width="1.5" stroke-linecap="round" stroke-linejoin="round"/>
  <path d="M4.16667 7.5H0.833336V17.5H4.16667V7.5Z" stroke="white" stroke-width="1.5" stroke-linecap="round" stroke-linejoin="round"/>
  <path d="M2.5 5.00008C3.42047 5.00008 4.16667 4.25389 4.16667 3.33341C4.16667 2.41294 3.42047 1.66675 2.5 1.66675C1.57953 1.66675 0.833336 2.41294 0.833336 3.33341C0.833336 4.25389 1.57953 5.00008 2.5 5.00008Z" stroke="white" stroke-width="1.5" stroke-linecap="round" stroke-linejoin="round"/>
</svg> 