<svg width="20" height="20" viewBox="0 0 20 20" fill="none" xmlns="http://www.w3.org/2000/svg">
  <path d="M18.3333 6.66675C18.3333 6.66675 18.0833 5.40008 17.5 4.83341C16.75 4.08341 15.9167 4.08341 15.5833 4.08341C13.25 3.91675 10 3.91675 10 3.91675C10 3.91675 6.75 3.91675 4.41667 4.08341C4.08333 4.16675 3.25 4.16675 2.5 4.83341C1.91667 5.40008 1.66667 6.66675 1.66667 6.66675C1.66667 6.66675 1.41667 8.08341 1.41667 9.58341V10.9167C1.41667 12.3334 1.66667 13.8334 1.66667 13.8334C1.66667 13.8334 1.91667 15.0001 2.5 15.5834C3.25 16.3334 4.25 16.3334 4.58333 16.4167C6.08333 16.5834 10 16.6667 10 16.6667C10 16.6667 13.25 16.6667 15.5833 16.5001C15.9167 16.4167 16.75 16.4167 17.5 15.7501C18.0833 15.1667 18.3333 13.9167 18.3333 13.9167C18.3333 13.9167 18.5833 12.5001 18.5833 11.0001V9.66675C18.5833 8.08341 18.3333 6.66675 18.3333 6.66675ZM8.33333 12.5001V7.50008L13.3333 10.0001L8.33333 12.5001Z" stroke="white" stroke-width="1.5" stroke-linecap="round" stroke-linejoin="round"/>
</svg> 